# xmcd
#
# Track frame offsets:
#	150
#	15679
#	33623
#	51288
#	66318
#	83889
#	103646
#	123384
#	143641
#	154297
#	166990
#	174893
#	178774
#	187969
#	195855
#
# Disc length: 2995 seconds
#
# Revision: 3
# Processed by: cddbd v1.5.2PL0 Copyright (c) Steve Scherf et al.
# Submitted via: audiograbber 1.83.01
#
DISCID=c40bb10f
DTITLE=Alicia Keys - Songs in A Minor (Remixed and Unplugged)
DYEAR=2002
DGENRE=R&B
TTITLE0=Girlfriend (KrucialKeys Sista Girl Mix)
TTITLE1=Gangsta Lovin' (w/ Eve)
TTITLE2=Fallin' (Remix feat. Busta Rhymes and Rampage)
TTITLE3=A Woman's Worth (Remix)
TTITLE4=Butterflyz (Roger's Release Mix)
TTITLE5=Troubles (J-Jay and Chris Lum Bootleg Mix)
TTITLE6=How Come You Don't Call Me (Neptunes Remix)
TTITLE7=Fallin' (Ali Version)
TTITLE8=Moonlight Sonata/L'Interludio Ambivalente/Ain't Misbehavin'
TTITLE9=Goodbye
TTITLE10=Never Felt This Way
TTITLE11=Butterflyz
TTITLE12=Caged Bird
TTITLE13=I Got A Little Something for You
TTITLE14=Someday We'll All Be Free
EXTD=Exaclty as on liner notes
EXTT0=
EXTT1=
EXTT2=
EXTT3=
EXTT4=
EXTT5=
EXTT6=
EXTT7=
EXTT8=
EXTT9=
EXTT10=
EXTT11=
EXTT12=
EXTT13=
EXTT14=
PLAYORDER=
